<svg width="112" height="20" viewBox="0 0 112 20" fill="none" xmlns="http://www.w3.org/2000/svg">
<path d="M9.13733 1.47145C9.52367 0.812467 10.4763 0.812466 10.8627 1.47145L13.0234 5.15701C13.1644 5.3975 13.3994 5.56821 13.6717 5.62799L17.8446 6.54408C18.5907 6.70788 18.8851 7.61391 18.3777 8.18498L15.5402 11.3789C15.3551 11.5873 15.2653 11.8635 15.2926 12.1409L15.7109 16.3927C15.7857 17.1529 15.0149 17.7129 14.315 17.4068L10.4006 15.6952C10.1452 15.5835 9.85478 15.5835 9.59936 15.6952L5.68496 17.4068C4.98506 17.7128 4.21435 17.1529 4.28913 16.3927L4.70736 12.1409C4.73465 11.8635 4.6449 11.5873 4.45975 11.3789L1.62229 8.18498C1.11494 7.61391 1.40933 6.70788 2.15545 6.54408L6.32833 5.62799C6.60062 5.56821 6.83559 5.3975 6.97658 5.15701L9.13733 1.47145Z" fill="#5700FF"/>
<path d="M32.1373 1.47145C32.5237 0.812467 33.4763 0.812466 33.8627 1.47145L36.0234 5.15701C36.1644 5.3975 36.3994 5.56821 36.6717 5.62799L40.8446 6.54408C41.5907 6.70788 41.8851 7.61391 41.3777 8.18498L38.5402 11.3789C38.3551 11.5873 38.2653 11.8635 38.2926 12.1409L38.7109 16.3927C38.7857 17.1529 38.0149 17.7129 37.315 17.4068L33.4006 15.6952C33.1452 15.5835 32.8548 15.5835 32.5994 15.6952L28.685 17.4068C27.9851 17.7128 27.2143 17.1529 27.2891 16.3927L27.7074 12.1409C27.7347 11.8635 27.6449 11.5873 27.4598 11.3789L24.6223 8.18498C24.1149 7.61391 24.4093 6.70788 25.1554 6.54408L29.3283 5.62799C29.6006 5.56821 29.8356 5.3975 29.9766 5.15701L32.1373 1.47145Z" fill="#5700FF"/>
<path d="M55.1373 1.47145C55.5237 0.812467 56.4763 0.812466 56.8627 1.47145L59.0234 5.15701C59.1644 5.3975 59.3994 5.56821 59.6717 5.62799L63.8446 6.54408C64.5907 6.70788 64.8851 7.61391 64.3777 8.18498L61.5402 11.3789C61.3551 11.5873 61.2653 11.8635 61.2926 12.1409L61.7109 16.3927C61.7857 17.1529 61.0149 17.7129 60.315 17.4068L56.4006 15.6952C56.1452 15.5835 55.8548 15.5835 55.5994 15.6952L51.685 17.4068C50.9851 17.7128 50.2143 17.1529 50.2891 16.3927L50.7074 12.1409C50.7347 11.8635 50.6449 11.5873 50.4598 11.3789L47.6223 8.18498C47.1149 7.61391 47.4093 6.70788 48.1554 6.54408L52.3283 5.62799C52.6006 5.56821 52.8356 5.3975 52.9766 5.15701L55.1373 1.47145Z" fill="#5700FF"/>
<path d="M78.1373 1.47145C78.5237 0.812467 79.4763 0.812466 79.8627 1.47145L82.0234 5.15701C82.1644 5.3975 82.3994 5.56821 82.6717 5.62799L86.8446 6.54408C87.5907 6.70788 87.8851 7.61391 87.3777 8.18498L84.5402 11.3789C84.3551 11.5873 84.2653 11.8635 84.2926 12.1409L84.7109 16.3927C84.7857 17.1529 84.0149 17.7129 83.315 17.4068L79.4006 15.6952C79.1452 15.5835 78.8548 15.5835 78.5994 15.6952L74.685 17.4068C73.9851 17.7128 73.2143 17.1529 73.2891 16.3927L73.7074 12.1409C73.7347 11.8635 73.6449 11.5873 73.4598 11.3789L70.6223 8.18498C70.1149 7.61391 70.4093 6.70788 71.1554 6.54408L75.3283 5.62799C75.6006 5.56821 75.8356 5.3975 75.9766 5.15701L78.1373 1.47145Z" fill="#5700FF"/>
<path d="M101.137 1.47145C101.524 0.812467 102.476 0.812466 102.863 1.47145L105.023 5.15701C105.164 5.3975 105.399 5.56821 105.672 5.62799L109.845 6.54408C110.591 6.70788 110.885 7.61391 110.378 8.18498L107.54 11.3789C107.355 11.5873 107.265 11.8635 107.293 12.1409L107.711 16.3927C107.786 17.1529 107.015 17.7129 106.315 17.4068L102.401 15.6952C102.145 15.5835 101.855 15.5835 101.599 15.6952L97.685 17.4068C96.9851 17.7128 96.2143 17.1529 96.2891 16.3927L96.7074 12.1409C96.7347 11.8635 96.6449 11.5873 96.4598 11.3789L93.6223 8.18498C93.1149 7.61391 93.4093 6.70788 94.1554 6.54408L98.3283 5.62799C98.6006 5.56821 98.8356 5.3975 98.9766 5.15701L101.137 1.47145Z" fill="#5700FF"/>
</svg>
